<?xml version="1.0" standalone="no"?><!DOCTYPE svg PUBLIC "-//W3C//DTD SVG 1.1//EN" "http://www.w3.org/Graphics/SVG/1.1/DTD/svg11.dtd"><svg t="1560694601761" class="icon" style="" viewBox="0 0 1024 1024" version="1.1" xmlns="http://www.w3.org/2000/svg" p-id="1747" xmlns:xlink="http://www.w3.org/1999/xlink" width="200" height="200"><defs><style type="text/css"></style></defs><path d="M515 367.4c36 0 69.9 14 95.4 39.5s39.5 59.4 39.5 95.4-14 69.9-39.5 95.4-59.4 39.5-95.4 39.5-69.9-14-95.4-39.5-39.5-59.4-39.5-95.4 14-69.9 39.5-95.4 59.3-39.5 95.4-39.5m0-60c-107.6 0-194.9 87.3-194.9 194.9S407.3 697.2 515 697.2s194.9-87.3 194.9-194.9S622.6 307.4 515 307.4z" p-id="1748"></path><path d="M683.2 576.8L823 716.6c11.7 11.7 11.7 30.8 0 42.4-11.7 11.7-30.8 11.7-42.4 0L640.7 619.2c-11.7-11.7-11.7-30.8 0-42.4 11.7-11.7 30.8-11.7 42.5 0z" p-id="1749"></path><path d="M876.6 541.8c0-7.5-0.3-10.6-0.6-12.1-0.1-0.3-0.1-0.6-0.1-0.9V237.3c0-8.2-3.3-15.8-9.2-21.5-6.1-5.9-14.1-8.9-22.6-8.7h-0.1c-7.5 0.3-15.1 0.4-23.3 0.4-198.9 0-287.4-89.2-288.2-90.1-5.8-6.2-14.1-9.8-22.7-9.8s-16.9 3.6-22.7 9.8c-0.9 1-94.2 97-311.6 89.7-8.5-0.3-16.6 2.8-22.6 8.7-5.9 5.7-9.2 13.4-9.2 21.5v297.2c0 108.4 36.8 266.4 355.1 386.9 3.6 1.4 7.3 2 11.1 2s7.5-0.7 11.1-2c94.9-35.9 152-65.6 203.4-105.9 0.8-0.6 1.3-1.5 1.3-2.5v-0.1c0.1-1-0.3-2-1-2.7l-39.3-38.5c-0.6-0.6-1.5-1-2.4-1h-0.1c-0.7 0-1.5 0.2-2.1 0.7-40.9 31.3-84.2 54.3-159.8 84.8-7.1 2.9-15.3 2.9-22.4 0C205.1 738 205.1 590.1 205.1 534.5V271.3c0-1.9 1.5-3.4 3.3-3.4 63.6-0.9 123-10 176.6-27.1 40.4-12.9 76.7-30 108-50.9 10.1-6.7 23.2-6.7 33.3 0 47.6 31.8 131.4 71.1 259.8 77.2 15.8 0.8 28.2 13.4 28.2 28.9v238.5c0 8 0.4 13.6 0.7 18.6 0.7 10.7 1.2 18.5-3.1 42.1l-0.2 0.9c0.4 1.1 1 2.1 1.8 2.9l41.4 40.5 0.3 0.3 0.2 0.2c0.8 0.7 2 0.9 3 0.6h0.1c1-0.3 1.8-1 2.2-2 9.6-22 13.4-49.9 14.9-69.5 0.9-11.8 1-21.4 1-27.3z" p-id="1750"></path></svg>