<?xml version="1.0" standalone="no"?><!DOCTYPE svg PUBLIC "-//W3C//DTD SVG 1.1//EN" "http://www.w3.org/Graphics/SVG/1.1/DTD/svg11.dtd"><svg t="1560694569240" class="icon" style="" viewBox="0 0 1024 1024" version="1.1" xmlns="http://www.w3.org/2000/svg" p-id="1508" xmlns:xlink="http://www.w3.org/1999/xlink" width="200" height="200"><defs><style type="text/css"></style></defs><path d="M707 501H317c-16.5 0-30-13.5-30-30s13.5-30 30-30h390c16.5 0 30 13.5 30 30s-13.5 30-30 30zM707 672H317c-16.5 0-30-13.5-30-30s13.5-30 30-30h390c16.5 0 30 13.5 30 30s-13.5 30-30 30zM632.1 295H389c-48.5 0-88-39.5-88-88s39.5-88 88-88h243c48.5 0 88 39.5 88 88s-39.4 88-87.9 88zM389 179c-15.4 0-28 12.6-28 28s12.6 28 28 28h243c15.4 0 28-12.6 28-28s-12.6-28-28-28H389z" p-id="1509"></path><path d="M787 895H234.1c-59.8 0-108.5-47.3-108.5-105.4V281.4c0-58.1 48.7-105.4 108.5-105.4h120.3v60H234.1c-26.8 0-48.5 20.4-48.5 45.4v508.2c0 25 21.8 45.4 48.5 45.4H787c26.8 0 48.5-20.4 48.5-45.4V281.4c0-25-21.8-45.4-48.5-45.4H666.7v-60H787c59.8 0 108.5 47.3 108.5 105.4v508.2c0 58.1-48.7 105.4-108.5 105.4z" p-id="1510"></path></svg>